<?xml version="1.0" encoding="utf-8"?><!DOCTYPE svg PUBLIC "-//W3C//DTD SVG 1.1//EN" "http://www.w3.org/Graphics/SVG/1.1/DTD/svg11.dtd"><svg version="1" xmlns="http://www.w3.org/2000/svg" width="800" height="400"><defs id="_ABSTRACT_RENDERER_ID_31"><filter id="_ABSTRACT_RENDERER_ID_32"><feGaussianBlur in="SourceAlpha" stdDeviation="2"></feGaussianBlur><feOffset dx="1" dy="1"></feOffset><feComponentTransfer><feFuncA type="linear" slope="0.1"></feFuncA></feComponentTransfer><feMerge><feMergeNode></feMergeNode><feMergeNode in="SourceGraphic"></feMergeNode></feMerge></filter></defs><rect x="0" y="0" width="800" height="400" stroke="none" stroke-width="0" fill="#ffffff"></rect><g><rect x="484" y="77" width="183" height="165" stroke="none" stroke-width="0" fill-opacity="0" fill="#ffffff"></rect><g column-id="Какая-то важная инфа"><rect x="484" y="77" width="183" height="13" stroke="none" stroke-width="0" fill-opacity="0" fill="#ffffff"></rect><g><text text-anchor="start" x="502" y="88.05" font-family="Arial" font-size="13" stroke="none" stroke-width="0" fill="#222222">Какая-то важная инфа</text></g><circle cx="490.5" cy="83.5" r="6.5" stroke="none" stroke-width="0" fill="#4285f4"></circle></g><g column-id="Косплей водолея"><rect x="484" y="98" width="183" height="13" stroke="none" stroke-width="0" fill-opacity="0" fill="#ffffff"></rect><g><text text-anchor="start" x="502" y="109.05" font-family="Arial" font-size="13" stroke="none" stroke-width="0" fill="#222222">Косплей водолея</text></g><circle cx="490.5" cy="104.5" r="6.5" stroke="none" stroke-width="0" fill="#db4437"></circle></g><g column-id="Время, убитое на составление этой диаграммы"><rect x="484" y="119" width="183" height="47" stroke="none" stroke-width="0" fill-opacity="0" fill="#ffffff"></rect><g><text text-anchor="start" x="502" y="130.05" font-family="Arial" font-size="13" stroke="none" stroke-width="0" fill="#222222">Время, убитое на</text><text text-anchor="start" x="502" y="147.05" font-family="Arial" font-size="13" stroke="none" stroke-width="0" fill="#222222">составление этой</text><text text-anchor="start" x="502" y="164.05" font-family="Arial" font-size="13" stroke="none" stroke-width="0" fill="#222222">диаграммы</text></g><circle cx="490.5" cy="125.5" r="6.5" stroke="none" stroke-width="0" fill="#f4b400"></circle></g><g column-id="Усердные попытки не двинуться кукухой"><rect x="484" y="174" width="183" height="30" stroke="none" stroke-width="0" fill-opacity="0" fill="#ffffff"></rect><g><text text-anchor="start" x="502" y="185.05" font-family="Arial" font-size="13" stroke="none" stroke-width="0" fill="#222222">Усердные попытки не</text><text text-anchor="start" x="502" y="202.05" font-family="Arial" font-size="13" stroke="none" stroke-width="0" fill="#222222">двинуться кукухой</text></g><circle cx="490.5" cy="180.5" r="6.5" stroke="none" stroke-width="0" fill="#0f9d58"></circle></g><g column-id="Стрёмные шутки на основе самоиронии"><rect x="484" y="212" width="183" height="30" stroke="none" stroke-width="0" fill-opacity="0" fill="#ffffff"></rect><g><text text-anchor="start" x="502" y="223.05" font-family="Arial" font-size="13" stroke="none" stroke-width="0" fill="#222222">Стрёмные шутки на</text><text text-anchor="start" x="502" y="240.05" font-family="Arial" font-size="13" stroke="none" stroke-width="0" fill="#222222">основе самоиронии</text></g><circle cx="490.5" cy="218.5" r="6.5" stroke="none" stroke-width="0" fill="#ab47bc"></circle></g></g><g><path d="M299,201L299,78A123,123,0,0,1,349.02860709832345,88.6339087099601L299,201A0,0,0,0,0,299,201" stroke="#ffffff" stroke-width="1" fill="#4285f4"></path><text text-anchor="start" x="304.7316700511195" y="108.0151608577303" font-family="Arial" font-size="13" stroke="none" stroke-width="0" fill="#ffffff">6.7%</text></g><g><path d="M299,201L349.02860709832345,88.6339087099601A123,123,0,0,1,415.97995150430387,162.99090969188148L299,201A0,0,0,0,0,299,201" stroke="#ffffff" stroke-width="1" fill="#db4437"></path><text text-anchor="start" x="348.60414650320536" y="144.2287510550613" font-family="Arial" font-size="13" stroke="none" stroke-width="0" fill="#ffffff">13.3%</text></g><g><path d="M299,201L415.97995150430387,162.99090969188148A123,123,0,0,1,371.2975860319742,300.5090903081185L299,201A0,0,0,0,0,299,201" stroke="#ffffff" stroke-width="1" fill="#f4b400"></path><text text-anchor="start" x="376.9270461159931" y="235.09398820336395" font-family="Arial" font-size="13" stroke="none" stroke-width="0" fill="#ffffff">20%</text></g><g><path d="M299,201L192.47887533451404,262.5A123,123,0,0,1,299,78L299,201A0,0,0,0,0,299,201" stroke="#ffffff" stroke-width="1" fill="#ab47bc"></path><text text-anchor="start" x="201.97841112688536" y="160.21553952691016" font-family="Arial" font-size="13" stroke="none" stroke-width="0" fill="#ffffff">33.3%</text></g><g><path d="M299,201L371.2975860319742,300.5090903081185A123,123,0,0,1,192.47887533451402,262.49999999999994L299,201A0,0,0,0,0,299,201" stroke="#ffffff" stroke-width="1" fill="#0f9d58"></path><text text-anchor="start" x="260.01783174943006" y="301.91102545903505" font-family="Arial" font-size="13" stroke="none" stroke-width="0" fill="#ffffff">26.7%</text></g><g></g></svg>